{"title":"Human Traffic 1999 1080p.BluRay.5.1.x264 . NVEE","uid":11996064,"size":2339119465,"categoryP":"video","categoryS":"hd___movies","magnet":"?xt=urn:btih:6ae9e532f7b435cc0a82c96164841ab810922b51&amp;dn=Human+Traffic+1999+1080p.BluRay.5.1.x264+.+NVEE&amp;tr=udp%3A%2F%2Ftracker.openbittorrent.com%3A80&amp;tr=udp%3A%2F%2Fopen.demonii.com%3A1337&amp;tr=udp%3A%2F%2Ftracker.coppersurfer.tk%3A6969&amp;tr=udp%3A%2F%2Fexodus.desync.com%3A6969","seeders":0,"leechers":0,"uploader":".NVEE","files":1,"time":1433660760,"description":"Quick note : \n\nTrackers refresh never most current &amp; so if, \nYou require a torrent release I have posted in the past, not seeding,... \nPlease do not hesitate to inform me in any means you find fit to do so. \nTorrent requests also &quot;Always Welcome.&quot; \n\n \nFULL_INFOs \n\n99.99% &gt;&gt;&gt; SYNCED GUARANTEED \n\n&quot;Totally scrutinized / analyzed to be a verified torrent.&quot; \n___________________________________________ \n\nSource : Blu-ray ~ 1080p \n\n \n\nSpoken Language : English \n\nAudio : 6 ~ Channels Only \n\n \nSubs Info : \n\nSubs Info : MULTI_SUBS \n &lt;a href=&quot;\nhttp://www.subtitleseeker.com/0188674/Human+Traffic/Subtitles/&quot; rel=&quot;nofollow&quot; target=&quot;_NEW&quot;&gt;\nhttp://www.subtitleseeker.com/0188674/Human+Traffic/Subtitles/&lt;/a&gt; \n\n152 Subtitles In 20 Languages Use Link Provided \n &lt;a href=&quot;\nhttp://www.subtitleseeker.com/0188674/Human+Traffic/Subtitles/&quot; rel=&quot;nofollow&quot; target=&quot;_NEW&quot;&gt;\nhttp://www.subtitleseeker.com/0188674/Human+Traffic/Subtitles/&lt;/a&gt; \n\n152 Subtitles In 20 Languages Only @ SubtitleSeeker \n &lt;a href=&quot;\nhttp://www.subtitleseeker.com/0188674/Human+Traffic/Subtitles/&quot; rel=&quot;nofollow&quot; target=&quot;_NEW&quot;&gt;\nhttp://www.subtitleseeker.com/0188674/Human+Traffic/Subtitles/&lt;/a&gt; \nAll .srt UTF-8 .idx &amp; .ass subs can be turned On/Off \n_____________________________________ \n--------------------------------------------------------------------------------- \n \nGeneral Metadata \n\n\nComplete name : Human Traffic 1999.1080p.BluRay.5.1.x264 . NVEE.mp4 \nFormat : MPEG-4 \nFormat profile : Base Media \nCodec ID : isom \nFile size : 2.18 GiB \nDuration : 1h 39mn \nOverall bit rate : 3 136 Kbps \nEncoded date : UTC 2015-06-07 00:53:35 \nTagged date : UTC 2015-06-07 00:53:35 \n\n \nVideo \n\nID : 1 \nFormat : AVC \nFormat/Info : Advanced Video Codec \nFormat profile : &lt;a class=&quot;__cf_email__&quot; href=&quot;/cdn-cgi/l/email-protection&quot; data-cfemail=&quot;1058797778505c253e21&quot;&gt;[email&amp;#160;protected]&lt;/a&gt;&lt;script data-cfhash='f9e31' type=&quot;text/javascript&quot;&gt;\n/* &lt;![CDATA[ */!function(){try{var t=&quot;currentScript&quot;in document?document.currentScript:function(){for(var t=document.getElementsByTagName(&quot;script&quot;),e=t.length;e--;)if(t[e].getAttribute(&quot;data-cfhash&quot;))return t[e]}();if(t&amp;&amp;t.previousSibling){var e,r,n,i,c=t.previousSibling,a=c.getAttribute(&quot;data-cfemail&quot;);if(a){for(e=&quot;&quot;,r=parseInt(a.substr(0,2),16),n=2;a.length-n;n+=2)i=parseInt(a.substr(n,2),16)^r,e+=String.fromCharCode(i);e=document.createTextNode(e),c.parentNode.replaceChild(e,c)}t.parentNode.removeChild(t);}}catch(u){}}()/* ]]&gt; */&lt;/script&gt; \nFormat settings, CABAC : Yes \nFormat settings, ReFrames : 6 frames \nCodec ID : avc1 \nCodec ID/Info : Advanced Video Coding \nDuration : 1h 39mn \nBit rate : 2 495 Kbps \nMaximum bit rate : 8 254 Kbps \nWidth : 1 920 pixels \nHeight : 1 040 pixels \nDisplay aspect ratio : 1.85:1 \nFrame rate mode : Constant \nFrame rate : 24.000 fps \nColor space : YUV \nChroma subsampling : 4:2:0 \nBit depth : 8 bits \nScan type : Progressive \nBits/(Pixel*Frame) : 0.052 \nStream size : 1.73 GiB (80%) \nWriting library : x264 core 146 r2538 121396c \nEncoded from Physical Blu-ray / Region B \n\n \nAudio \n\nID : 2 \nFormat : AC-3 \nFormat/Info : Audio Coding 3 \nMode extension : CM (complete main) \nFormat settings, Endianness : Big \nCodec ID : ac-3 \nDuration : 1h 39mn \nBit rate mode : Constant \nBit rate : 640 Kbps \nMaximum bit rate : 676 Kbps \nChannel(s) : 6 channels \nChannel positions : Front: L C R, Side: L R, LFE \nSampling rate : 48.0 KHz \nBit depth : 16 bits \nCompression mode : Lossy \nStream size : 455 MiB (20%) \nEncoded date : UTC 2015-06-07 01:06:00 \nTagged date : UTC 2015-06-07 01:07:34 \nEncoded from Physical Blu-ray 6 Channel audio &quot;Always&quot;. \n\nSynopsis \n\nThe film is an ensemble piece in which the five protagonists plan, enjoy and come down from a weekend out in Cardiff; all motivated at least in part by the need for a weekend escape from the difficulties and contradictions of their daily lives. Jip, the male lead, is suffering from sexual anxiety brought on by a series of unsuccessful liaisons. \n\n \n\n \n\n \n\n\n\n\nEnj0y !","torrent":{"xt":"urn:btih:6ae9e532f7b435cc0a82c96164841ab810922b51","amp;dn":"Human+Traffic+1999+1080p.BluRay.5.1.x264+.+NVEE","amp;tr":["udp%3A%2F%2Ftracker.openbittorrent.com%3A80","udp%3A%2F%2Fopen.demonii.com%3A1337","udp%3A%2F%2Ftracker.coppersurfer.tk%3A6969","udp%3A%2F%2Fexodus.desync.com%3A6969"],"infoHash":"6ae9e532f7b435cc0a82c96164841ab810922b51","infoHashBuffer":{"type":"Buffer","data":[106,233,229,50,247,180,53,204,10,130,201,97,100,132,26,184,16,146,43,81]},"announce":[],"urlList":[]}}